<?xml version="1.0" encoding="UTF-8"?>
<svg id="_Слой_1" xmlns="http://www.w3.org/2000/svg" viewBox="0 0 100 100">
  <defs>
    <style>
      .cls-1 {
        fill: #fff;
        isolation: isolate;
      }
    </style>
  </defs>
  <path class="cls-1" d="M50,0C22.39,0,0,22.39,0,50s22.39,50,50,50,50-22.39,50-50S77.61,0,50,0ZM18.84,29.27l-.28.42-4-2.66.28-.43c6.36-9.55,16.47-16.17,27.73-18.17l.5-.09.84,4.73-.5.09c-9.98,1.77-18.94,7.64-24.58,16.11h.01ZM28.47,36.46l-4.05-2.72.35-.53c4.58-6.8,11.81-11.58,19.85-13.12l.62-.12.91,4.79-.62.12c-6.77,1.3-12.86,5.33-16.72,11.05l-.35.53h.01ZM31.17,50c0-10.4,8.43-18.83,18.83-18.83s18.83,8.43,18.83,18.83-8.43,18.83-18.83,18.83-18.83-8.43-18.83-18.83ZM54.87,81.1l-.79-4.82.63-.1c7.15-1.17,13.55-5.31,17.54-11.36l.35-.53,4.08,2.68-.35.54c-4.74,7.18-12.33,12.1-20.83,13.5l-.63.1h0ZM85.16,73.39c-6.37,9.55-16.47,16.17-27.74,18.18l-.5.08-.84-4.73.5-.09c9.97-1.77,18.94-7.64,24.58-16.11l.28-.43,4,2.67-.28.42h0Z"/>
  <path class="cls-1" d="M60.03,39.85c-2.62-2.62-6.23-4.23-10.23-4.24-3.99,0-7.6,1.62-10.22,4.24s-4.24,6.23-4.24,10.23,1.62,7.6,4.24,10.23,6.23,4.23,10.22,4.24c4,0,7.6-1.62,10.23-4.24,2.62-2.62,4.23-6.23,4.23-10.23s-1.62-7.6-4.23-10.23h0ZM49.81,57.77c-4.25,0-7.69-3.44-7.69-7.69s3.44-7.69,7.69-7.69,7.69,3.44,7.69,7.69-3.44,7.69-7.69,7.69Z"/>
</svg>