<?xml version="1.0" encoding="UTF-8"?>
<svg id="_Слой_1" data-name="Слой_1" xmlns="http://www.w3.org/2000/svg" viewBox="0 0 100 100">
  <defs>
    <style>
      .cls-1 {
        fill: #2be96c;
      }
    </style>
  </defs>
  <path class="cls-1" d="M48.38,44.9l1.57,1.55,1.58-1.54c1.64-1.6,16.08-15.79,19-20.55,1.9-3.09,2.74-6.19,2.74-10.05,0-9.39-7.06-14.31-14.03-14.31-3.84,0-7.02,1.32-9.27,3.78-1.72-1.88-4.6-3.78-9.25-3.78-8.24,0-14,5.88-14,14.31,0,3.84.85,6.94,2.76,10.05,2.92,4.75,17.27,18.94,18.89,20.54Z"/>
  <path class="cls-1" d="M51.62,55.1l-1.57-1.55-1.58,1.54c-1.64,1.6-16.08,15.79-19,20.55-1.9,3.09-2.74,6.19-2.74,10.05,0,9.39,7.06,14.31,14.03,14.31,3.84,0,7.02-1.32,9.27-3.78,1.72,1.88,4.6,3.78,9.25,3.78,8.24,0,14-5.88,14-14.31,0-3.84-.85-6.94-2.76-10.05-2.92-4.75-17.27-18.94-18.89-20.54Z"/>
  <path class="cls-1" d="M96.22,49.98c1.88-1.72,3.78-4.6,3.78-9.25,0-8.24-5.88-14-14.31-14-3.85,0-6.94.85-10.05,2.76-4.75,2.92-18.94,17.27-20.54,18.89l-1.55,1.57,1.54,1.58c1.6,1.64,15.79,16.08,20.55,19,3.09,1.9,6.19,2.74,10.05,2.74,9.39,0,14.31-7.06,14.31-14.03,0-3.84-1.32-7.02-3.78-9.27Z"/>
  <path class="cls-1" d="M44.9,51.62l1.55-1.57-1.54-1.58c-1.6-1.64-15.79-16.08-20.55-19-3.09-1.9-6.19-2.74-10.05-2.74-9.39,0-14.31,7.06-14.31,14.03,0,3.84,1.32,7.02,3.78,9.27-1.88,1.72-3.78,4.6-3.78,9.25,0,8.24,5.88,14,14.31,14,3.85,0,6.94-.85,10.05-2.76,4.75-2.92,18.94-17.27,20.54-18.89Z"/>
</svg>