<?xml version="1.0" encoding="UTF-8"?>
<svg id="_Слой_1" data-name="Слой_1" xmlns="http://www.w3.org/2000/svg" viewBox="0 0 100 95.24">
  <defs>
    <style>
      .cls-1 {
        fill: #e6e6e6;
        fill-rule: evenodd;
      }

      .cls-2 {
        opacity: .5;
      }
    </style>
  </defs>
  <g id="Page-1" class="cls-2">
    <g id="Dribbble-Light-Preview">
      <g id="icons">
        <path id="menu_x5F_navigation_x5F_grid-_x5B__x23_1529_x5D_" class="cls-1" d="M85,52.38h-15c-8.28,0-15,6.4-15,14.29v14.29c0,7.89,6.72,14.29,15,14.29h15c8.29,0,15-6.4,15-14.29v-14.29c0-7.89-6.71-14.29-15-14.29M30,52.38h-15c-8.29,0-15,6.4-15,14.29v14.29c0,7.89,6.71,14.29,15,14.29h15c8.28,0,15-6.4,15-14.29v-14.29c0-7.89-6.72-14.29-15-14.29M85,0h-15c-8.28,0-15,6.4-15,14.29v14.29c0,7.89,6.72,14.29,15,14.29h15c8.29,0,15-6.4,15-14.29v-14.29c0-7.89-6.71-14.29-15-14.29M45,14.29v14.29c0,7.89-6.72,14.29-15,14.29h-15c-8.29,0-15-6.4-15-14.29v-14.29C0,6.4,6.71,0,15,0h15c8.28,0,15,6.4,15,14.29"/>
      </g>
    </g>
  </g>
</svg>