<?xml version="1.0" encoding="UTF-8"?>
<svg id="_Слой_1" xmlns="http://www.w3.org/2000/svg" viewBox="0 0 99.99 77.76">
  <defs>
    <style>
      .cls-1 {
        fill: #fff;
        isolation: isolate;
      }
    </style>
  </defs>
  <path class="cls-1" d="M0,33.32c0-2.05,1.66-3.7,3.7-3.7h55.56c2.05,0,3.7,1.66,3.7,3.7s-1.66,3.7-3.7,3.7H3.7c-2.05,0-3.7-1.66-3.7-3.7ZM3.7,7.4h81.48c2.05,0,3.7-1.66,3.7-3.7S87.22,0,85.18,0H3.7C1.66,0,0,1.65,0,3.69s1.66,3.7,3.7,3.7h0ZM97.36,27.92l-18.52-5.56c-1.96-.59-4.02.52-4.61,2.48-.1.35-.16.7-.16,1.06v24.22c-7.08-4.09-16.14-1.66-20.23,5.42-4.09,7.08-1.66,16.14,5.42,20.23,7.08,4.09,16.14,1.66,20.23-5.42,1.3-2.25,1.98-4.81,1.98-7.41V30.89l13.75,4.13c1.96.59,4.02-.52,4.61-2.48.59-1.96-.52-4.02-2.48-4.61h.01ZM37.04,59.25H3.7c-2.05,0-3.7,1.66-3.7,3.7s1.66,3.7,3.7,3.7h33.33c2.05,0,3.7-1.66,3.7-3.7s-1.66-3.7-3.7-3.7h0Z"/>
</svg>