<?xml version="1.0" encoding="UTF-8"?>
<svg id="_Слой_1" data-name="Слой_1" xmlns="http://www.w3.org/2000/svg" viewBox="0 0 100 87.05">
  <defs>
    <style>
      .cls-1 {
        fill: #fff;
      }
    </style>
  </defs>
  <path class="cls-1" d="M35.87,76.17l2.16-2.74-2.16,2.74ZM50,13.8l-2.51,2.42c.66.68,1.57,1.07,2.51,1.07s1.86-.39,2.51-1.07l-2.51-2.42ZM64.13,76.17l2.16,2.74-2.16-2.74ZM26.75,64.59c-1.49-1.22-3.69-1.01-4.91.48-1.22,1.49-1.01,3.69.48,4.91l4.43-5.39ZM5.08,50.59c.92,1.69,3.04,2.31,4.73,1.39,1.69-.92,2.31-3.04,1.39-4.73l-6.12,3.35ZM6.98,30.71c0-10,5.65-18.39,13.37-21.92,7.5-3.43,17.57-2.52,27.14,7.43l5.03-4.84C41.16-.42,27.97-2.37,17.45,2.45,7.14,7.16,0,18.1,0,30.71h6.98ZM33.71,78.91c2.38,1.88,4.94,3.88,7.53,5.4,2.59,1.51,5.55,2.74,8.76,2.74v-6.98c-1.44,0-3.13-.56-5.24-1.79-2.1-1.23-4.29-2.92-6.73-4.85l-4.32,5.48ZM66.29,78.91c6.64-5.23,15.12-11.22,21.77-18.72,6.77-7.63,11.94-17.08,11.94-29.48h-6.98c0,10.22-4.18,18.1-10.18,24.85-6.12,6.89-13.82,12.31-20.87,17.87l4.32,5.48ZM100,30.71c0-12.61-7.14-23.55-17.45-28.27-10.53-4.81-23.71-2.87-35.07,8.93l5.03,4.84c9.57-9.94,19.64-10.85,27.14-7.43,7.72,3.53,13.37,11.92,13.37,21.92h6.98ZM61.97,73.43c-2.45,1.93-4.63,3.62-6.73,4.85-2.1,1.23-3.8,1.79-5.24,1.79v6.98c3.21,0,6.17-1.23,8.76-2.74,2.59-1.51,5.15-3.52,7.53-5.4l-4.32-5.48ZM38.03,73.43c-3.7-2.92-7.46-5.7-11.28-8.84l-4.43,5.39c3.86,3.18,7.94,6.21,11.4,8.93l4.32-5.48ZM11.2,47.24c-2.61-4.77-4.22-10.18-4.22-16.53H0c0,7.62,1.95,14.17,5.08,19.88l6.12-3.35Z"/>
</svg>