<?xml version="1.0" encoding="UTF-8"?>
<svg id="_Слой_1" data-name="Слой_1" xmlns="http://www.w3.org/2000/svg" viewBox="0 0 100 90.7">
  <defs>
    <style>
      .cls-1 {
        fill: #fff;
      }

      .cls-2 {
        fill: none;
        stroke: #fff;
        stroke-linecap: round;
        stroke-linejoin: round;
        stroke-width: 6px;
      }
    </style>
  </defs>
  <path class="cls-2" d="M43.02,43.02l6.98-6.98v18.6"/>
  <path class="cls-1" d="M38.37,81.4c1.93,0,3.49-1.56,3.49-3.49s-1.56-3.49-3.49-3.49v6.98ZM45.35,12.79v3.49c1.41,0,2.68-.85,3.22-2.15.54-1.3.24-2.8-.76-3.8l-2.47,2.47ZM38.51,1.02c-1.36-1.36-3.57-1.36-4.93,0-1.36,1.36-1.36,3.57,0,4.93l4.93-4.93ZM0,45.35c0,1.93,1.56,3.49,3.49,3.49s3.49-1.56,3.49-3.49H0ZM12.19,61.96c-1.1-1.58-3.28-1.97-4.86-.87-1.58,1.1-1.97,3.28-.87,4.86l5.72-3.99ZM38.37,74.42h-2.32v6.98h2.32v-6.98ZM36.05,16.28h9.3v-6.98h-9.3v6.98ZM47.82,10.32L38.51,1.02l-4.93,4.93,9.3,9.3,4.93-4.93ZM6.98,45.35c0-16.05,13.01-29.07,29.07-29.07v-6.98C16.14,9.3,0,25.44,0,45.35h6.98ZM6.46,65.95c6.51,9.33,17.33,15.45,29.58,15.45v-6.98c-9.88,0-18.6-4.92-23.86-12.46l-5.72,3.99Z"/>
  <path class="cls-1" d="M54.65,77.91v-3.49c-1.41,0-2.68.85-3.22,2.15-.54,1.3-.24,2.8.76,3.8l2.47-2.47ZM61.49,89.68c1.36,1.36,3.57,1.36,4.93,0s1.36-3.57,0-4.93l-4.93,4.93ZM61.63,9.3c-1.93,0-3.49,1.56-3.49,3.49s1.56,3.49,3.49,3.49v-6.98ZM100,45.35c0-1.93-1.56-3.49-3.49-3.49s-3.49,1.56-3.49,3.49h6.98ZM87.81,28.74c1.1,1.58,3.28,1.97,4.86.87,1.58-1.1,1.97-3.28.87-4.86l-5.72,3.99ZM63.95,74.42h-9.3v6.98h9.3v-6.98ZM52.18,80.37l9.3,9.3,4.93-4.93-9.3-9.3-4.93,4.93ZM61.63,16.28h2.33v-6.98h-2.33v6.98ZM93.02,45.35c0,16.05-13.01,29.07-29.07,29.07v6.98c19.91,0,36.05-16.14,36.05-36.05h-6.98ZM93.54,24.75c-6.51-9.33-17.33-15.45-29.58-15.45v6.98c9.88,0,18.6,4.92,23.86,12.46l5.72-3.99Z"/>
</svg>