<?xml version="1.0" encoding="UTF-8"?>
<svg id="_Слой_1" data-name="Слой_1" xmlns="http://www.w3.org/2000/svg" viewBox="0 0 100 97">
  <defs>
    <style>
      .cls-1 {
        fill: none;
        stroke: #fff;
        stroke-linecap: round;
        stroke-miterlimit: 133.33;
        stroke-width: 6px;
      }
    </style>
  </defs>
  <path class="cls-1" d="M89.95,18.79s7.05,8.46,7.05,28.21-7.05,28.21-7.05,28.21"/>
  <path class="cls-1" d="M80.54,32.89s2.35,4.23,2.35,14.11-2.35,14.11-2.35,14.11"/>
  <path class="cls-1" d="M68.55,47c0,2.49-.17,6.97-.41,12.21-.66,14.14-.99,21.2-5.31,24.24-.83.58-1.76,1.06-2.72,1.38-4.53,1.55-9.85-1.54-19.68-7.97M28.8,70.62c-1.16-.2-2.36-.2-4.76-.2-6.44,0-9.66,0-12.46-1.3-2.57-1.19-5.13-3.6-6.47-6.09-1.47-2.72-1.64-5.56-1.99-11.22-.05-.84-.09-1.67-.12-2.48M5.11,30.96c1.34-2.49,3.91-4.9,6.47-6.09,2.81-1.3,6.03-1.3,12.46-1.3,2.4,0,3.6,0,4.76-.2,1.15-.19,2.27-.53,3.33-1,1.08-.48,2.08-1.14,4.08-2.46l1.03-.68c11.91-7.86,17.87-11.78,22.87-10.08.96.33,1.89.8,2.72,1.38,3.91,2.75,4.55,8.8,5.13,20.41"/>
  <path class="cls-1" d="M97,3L6,94"/>
</svg>