<?xml version="1.0" encoding="UTF-8"?>
<svg id="_Слой_1" data-name="Слой_1" xmlns="http://www.w3.org/2000/svg" viewBox="0 0 100 95.83">
  <defs>
    <style>
      .cls-1 {
        opacity: .5;
      }

      .cls-2 {
        fill: #e6e6e6;
      }
    </style>
  </defs>
  <g class="cls-1">
    <g>
      <path class="cls-2" d="M90.65,20.83h-3.84c-1.78-5.9-6.76-12.5-11.81-12.5h-19.11l-7.11-7.11c-.78-.78-1.84-1.22-2.95-1.22H13.57C8.42,0,4.17,4.06,4.17,9.17v13.24c-2.51,1.68-4.17,4.55-4.17,7.8v56.25c0,5.17,4.19,9.38,9.35,9.38h81.29c5.17,0,9.35-4.2,9.35-9.38V30.21c0-5.17-4.19-9.38-9.35-9.38ZM12.5,9.17c0-.42.43-.83,1.07-.83h30.54l7.11,7.11c.78.78,1.84,1.22,2.95,1.22h20.83c-.17,0,.94,1.02,2.04,2.85.26.43.5.87.72,1.32H12.5v-11.67ZM91.67,86.46c0,.58-.46,1.04-1.02,1.04H9.35c-.56,0-1.02-.46-1.02-1.04V30.21c0-.58.46-1.04,1.02-1.04h81.29c.56,0,1.02.46,1.02,1.04v56.25Z"/>
      <path class="cls-2" d="M79.15,37.11s0-.04,0-.06c0-.02,0-.04,0-.06-.01-.1-.03-.19-.05-.28,0-.03,0-.05-.02-.08-.02-.11-.05-.22-.08-.33,0-.02-.01-.04-.02-.07-.04-.11-.08-.22-.12-.33,0-.02-.01-.03-.02-.05-.05-.11-.1-.22-.16-.32,0-.01-.01-.02-.02-.03-.06-.11-.12-.21-.19-.31,0,0-.01-.02-.02-.02-.07-.1-.14-.2-.22-.3,0,0-.01-.02-.02-.02-.08-.09-.16-.18-.24-.27,0,0-.02-.02-.03-.03-.08-.08-.17-.16-.26-.24-.01-.01-.03-.02-.04-.03-.09-.07-.18-.14-.27-.21-.02-.01-.04-.02-.05-.04-.09-.06-.19-.12-.29-.17-.02-.01-.04-.02-.06-.03-.1-.05-.2-.1-.3-.15-.02,0-.04-.02-.06-.03-.11-.04-.22-.08-.33-.12-.02,0-.03-.01-.05-.02-.12-.04-.23-.07-.35-.09-.01,0-.02,0-.04,0-.13-.03-.25-.04-.38-.06,0,0-.02,0-.03,0-.13-.01-.26-.02-.39-.02,0,0-.01,0-.02,0s-.01,0-.02,0c-.12,0-.25,0-.38.02-.02,0-.04,0-.06,0-.02,0-.04,0-.06,0l-33.33,4.17c-.1.01-.19.03-.28.05-.03,0-.05,0-.08.02-.11.02-.22.05-.33.08-.02,0-.04.01-.07.02-.11.04-.22.08-.33.12-.02,0-.03.01-.05.02-.11.05-.22.1-.32.16-.01,0-.02.01-.03.02-.11.06-.21.12-.31.19,0,0-.02.01-.03.02-.1.07-.2.14-.3.22,0,0-.02.01-.02.02-.09.08-.18.16-.27.24,0,0-.02.02-.03.03-.08.08-.16.17-.24.26-.01.01-.02.03-.03.04-.07.09-.14.18-.2.27-.01.02-.02.04-.04.05-.06.09-.12.19-.17.29-.01.02-.02.04-.03.06-.05.1-.1.2-.15.3,0,.02-.02.04-.03.06-.04.11-.08.22-.12.33,0,.02-.01.03-.02.05-.04.12-.07.23-.09.35,0,.01,0,.02,0,.04-.03.13-.04.25-.06.38,0,0,0,.02,0,.03-.01.13-.02.26-.02.4,0,0,0,.01,0,.02v12.5h-5.36c-6.8,0-11.31,5.79-11.31,12.7s5.51,12.3,12.3,12.3h1.39c6.79,0,11.31-4.52,11.31-11.31v-9.49s0-.02,0-.03v-12.99l25-3.13v11.95h-5.36c-6.8,0-11.31,5.79-11.31,12.7s5.51,12.3,12.3,12.3h1.39c6.79,0,11.31-4.52,11.31-11.31v-9.49s0-.02,0-.03v-20.83s0-.01,0-.02c0-.12,0-.25-.02-.38ZM37.5,67.86c0,2.18-.79,2.98-2.98,2.98h-1.39c-2.19,0-3.96-1.77-3.96-3.96,0-2.7,1.3-4.37,2.98-4.37h5.35v5.36ZM70.83,67.86c0,2.18-.79,2.98-2.98,2.98h-1.39c-2.19,0-3.96-1.77-3.96-3.96,0-2.7,1.3-4.37,2.98-4.37h5.35v5.36Z"/>
    </g>
  </g>
</svg>