<?xml version="1.0" encoding="UTF-8"?>
<svg id="_Слой_1" data-name="Слой_1" xmlns="http://www.w3.org/2000/svg" viewBox="0 0 100 100">
  <defs>
    <style>
      .cls-1 {
        fill: #fff;
      }
    </style>
  </defs>
  <path class="cls-1" d="M53.85,29.49c0-2.12-1.72-3.85-3.85-3.85s-3.85,1.72-3.85,3.85h7.69ZM46.15,70.51c0,2.12,1.72,3.85,3.85,3.85s3.85-1.72,3.85-3.85h-7.69ZM29.49,46.15c-2.12,0-3.85,1.72-3.85,3.85s1.72,3.85,3.85,3.85v-7.69ZM70.51,53.85c2.12,0,3.85-1.72,3.85-3.85s-1.72-3.85-3.85-3.85v7.69ZM64.1,10.1c2,.71,4.2-.34,4.91-2.34.71-2-.34-4.2-2.34-4.91l-2.56,7.25ZM91.58,22.22c-1.18-1.77-3.57-2.24-5.34-1.06-1.77,1.18-2.24,3.57-1.06,5.34l6.39-4.28ZM39.74,53.85c2.12,0,3.85-1.72,3.85-3.85s-1.72-3.85-3.85-3.85v7.69ZM50,46.15c-2.12,0-3.85,1.72-3.85,3.85s1.72,3.85,3.85,3.85v-7.69ZM46.15,29.49v41.03h7.69V29.49h-7.69ZM92.31,50c0,23.37-18.94,42.31-42.31,42.31v7.69c27.61,0,50-22.39,50-50h-7.69ZM50,92.31c-23.37,0-42.31-18.94-42.31-42.31H0c0,27.61,22.39,50,50,50v-7.69ZM7.69,50C7.69,26.63,26.63,7.69,50,7.69V0C22.39,0,0,22.39,0,50h7.69ZM50,7.69c4.95,0,9.7.85,14.1,2.41l2.56-7.25c-5.22-1.84-10.83-2.85-16.67-2.85v7.69ZM85.19,26.5c4.5,6.72,7.12,14.8,7.12,23.5h7.69c0-10.27-3.1-19.83-8.42-27.78l-6.39,4.28ZM29.49,53.85h10.26v-7.69h-10.26v7.69ZM50,53.85h20.51v-7.69h-20.51v7.69Z"/>
</svg>