<?xml version="1.0" encoding="UTF-8"?>
<svg id="_Слой_1" xmlns="http://www.w3.org/2000/svg" viewBox="0 0 100.01 92.47">
  <defs>
    <style>
      .cls-1 {
        fill: #fff;
        isolation: isolate;
      }
    </style>
  </defs>
  <path class="cls-1" d="M10,0c-2.76,0-5,2.24-5,5s2.24,5,5,5c.69,0,1.36-.14,1.99-.41.3.15.61.26.94.33l56.62,12.58H8.75c-4.79,0-8.75,3.96-8.75,8.75v52.47c0,4.79,3.96,8.75,8.75,8.75h82.46c4.79,0,8.75-3.96,8.75-8.75v-39.37c.07-.4.07-.81,0-1.22v-11.89c0-4.79-3.96-8.75-8.75-8.75h-6.46c.69-1.95-.33-4.1-2.29-4.79-.14-.05-.29-.09-.43-.12L14.56,2.59c-.07-.02-.14-.03-.21-.04-.89-1.58-2.55-2.55-4.35-2.55ZM8.75,29.99h11.24v10H7.5v-8.75c0-.74.51-1.25,1.25-1.25ZM27.49,29.99h63.72c.74,0,1.25.51,1.25,1.25v8.75H27.49s0-10,0-10ZM33.73,54.97c2.07,0,3.75,1.68,3.75,3.75s-1.68,3.75-3.75,3.75-3.75-1.68-3.75-3.75,1.68-3.75,3.75-3.75ZM73.71,54.97c6.2,0,11.24,5.04,11.24,11.24s-5.05,11.24-11.24,11.24-11.24-5.05-11.24-11.24,5.04-11.24,11.24-11.24ZM21.24,62.47c2.07,0,3.75,1.68,3.75,3.75s-1.68,3.75-3.75,3.75-3.75-1.68-3.75-3.75,1.68-3.75,3.75-3.75ZM46.23,62.47c2.07,0,3.75,1.68,3.75,3.75s-1.68,3.75-3.75,3.75-3.75-1.68-3.75-3.75,1.68-3.75,3.75-3.75ZM33.73,69.97c2.07,0,3.75,1.68,3.75,3.75s-1.68,3.75-3.75,3.75-3.75-1.68-3.75-3.75,1.68-3.75,3.75-3.75Z"/>
</svg>