<?xml version="1.0" encoding="UTF-8"?>
<svg id="_Слой_1" data-name="Слой_1" xmlns="http://www.w3.org/2000/svg" viewBox="0 0 85.89 82.73">
  <defs>
    <style>
      .cls-1 {
        fill: none;
        stroke: #fff;
        stroke-linecap: round;
        stroke-miterlimit: 133.33;
        stroke-width: 6px;
      }
    </style>
  </defs>
  <path class="cls-1" d="M80.54,27.26s2.35,4.23,2.35,14.11-2.35,14.11-2.35,14.11"/>
  <path class="cls-1" d="M5.11,25.27c1.35-2.5,3.92-4.92,6.5-6.11,2.82-1.3,6.05-1.3,12.51-1.3,2.41,0,3.61,0,4.78-.2,1.15-.19,2.28-.53,3.35-1,1.08-.48,2.09-1.14,4.1-2.47l1.03-.68C49.33,5.62,55.3,1.68,60.32,3.4c.96.33,1.89.8,2.73,1.39,4.34,3.05,4.67,10.14,5.33,24.33.24,5.25.41,9.75.41,12.25s-.17,7-.41,12.25c-.66,14.19-.99,21.28-5.33,24.33-.83.58-1.76,1.06-2.73,1.39-5.02,1.71-11-2.23-22.95-10.11l-1.03-.68c-2.01-1.33-3.02-1.99-4.1-2.47-1.07-.47-2.19-.81-3.35-1-1.17-.2-2.37-.2-4.78-.2-6.46,0-9.69,0-12.51-1.3-2.57-1.19-5.15-3.61-6.5-6.11-1.47-2.73-1.65-5.58-1.99-11.26-.05-.84-.09-1.67-.12-2.48"/>
</svg>