<?xml version="1.0" encoding="UTF-8"?>
<svg id="_Слой_1" xmlns="http://www.w3.org/2000/svg" viewBox="0 0 94.78 100">
  <defs>
    <style>
      .cls-1 {
        stroke-linecap: round;
      }

      .cls-1, .cls-2 {
        fill: none;
        stroke: red;
        stroke-miterlimit: 133.33;
        stroke-width: 6px;
      }
    </style>
  </defs>
  <path class="cls-1" d="M91.78,18.67H3"/>
  <path class="cls-1" d="M34.33,44.78l2.61,26.11"/>
  <path class="cls-1" d="M60.44,44.78l-2.61,26.11"/>
  <path class="cls-2" d="M18.67,18.67h.57c4.3-.11,8.09-2.84,9.56-6.89.05-.12.09-.26.18-.54l.51-1.52c.43-1.3.65-1.95.94-2.5,1.15-2.2,3.26-3.73,5.71-4.12.61-.1,1.3-.1,2.67-.1h17.18c1.37,0,2.05,0,2.67.1,2.45.39,4.57,1.92,5.71,4.12.29.55.5,1.2.94,2.5l.51,1.52c.09.28.14.42.18.54,1.46,4.05,5.26,6.78,9.56,6.89h.57"/>
  <path class="cls-1" d="M80.67,67.75c-.92,13.86-1.39,20.8-5.9,25.02-4.52,4.23-11.46,4.23-25.36,4.23h-4.04c-13.9,0-20.84,0-25.36-4.23s-4.98-11.16-5.9-25.02l-2.4-36.03M83.07,31.72l-1.04,15.67"/>
</svg>